<svg xmlns="http://www.w3.org/2000/svg" xmlns:xlink="http://www.w3.org/1999/xlink" enable-background="new 0 0 6000 4000" viewBox="0 0 6000 4000"><path fill="#aecff1" d="M697.1,3015.5c0,0-148.2,673.4,649.2,500.2c797.5-173.2,1239.9-267.6,1669.7-133.8
			c429.9,133.8,1293.3,157.4,1361,31.5c0,0,511.5,153.5,717.4-47.2c205.9-200.7,16-528.5-145.2-555.5S775.4,2651.7,697.1,3015.5"/><g opacity=".38"><defs><rect id="a" width="4804.2" height="1080.1" x="533.8" y="2614.9"/></defs><clipPath id="b"><use overflow="visible" xlink:href="#a"/></clipPath><g clip-path="url(#b)"><defs><rect id="c" width="4804.2" height="1080.1" x="533.8" y="2614.9"/></defs><clipPath id="d"><use overflow="visible" xlink:href="#c"/></clipPath></g></g><defs><path id="e" d="M4666.7,476.4c8.7,43.2-49.8,244.4-121.5,274.2c-71.8,29.8-108.6,88.2-102.7,136.6
				c5.9,48.4,19,65.1,19,65.1s-43.6-42.1-95.6,27.5c-52,69.6,70.8,109.4-2.4,189.7c-73.2,80.3-182.2-8.5-176.5,150.2
				c5.7,158.7,281.7,186.2,412.5,25.5c130.9-160.7,282.2-306.7,288.4-420.1c3.4-62.5-25.7-61-54.4-59.4
				c-23.4,1.3-46.4,2.5-51.4-30.8c-11.2-74.2,56.2-346.4-32.3-427.9c-23.1-21.3-40.4-29.7-53.2-29.7
				C4660.4,377.4,4660.3,444.5,4666.7,476.4"/></defs><clipPath id="f"><use overflow="visible" xlink:href="#e"/></clipPath><linearGradient id="g" x1="1822.204" x2="1826.374" y1="2777.907" y2="2777.907" gradientTransform="scale(-189.5491 189.5491) rotate(19.595 8930.253 -3967.024)" gradientUnits="userSpaceOnUse"><stop offset="0" stop-color="#b6f2f0"/><stop offset=".304" stop-color="#b6f2f0"/><stop offset=".406" stop-color="#90dbd9"/><stop offset=".522" stop-color="#6dc6c4"/><stop offset=".639" stop-color="#52b5b4"/><stop offset=".757" stop-color="#3ea9a8"/><stop offset=".876" stop-color="#33a2a1"/><stop offset="1" stop-color="#2fa09f"/></linearGradient><polygon fill="url(#g)" points="5247.9 1379 4261.2 1730.3 3824.7 504.3 4811.5 153" clip-path="url(#f)"/><g opacity=".38"><defs><rect id="h" width="1009.2" height="1380.4" x="4032.7" y="225.3"/></defs><clipPath id="i"><use overflow="visible" xlink:href="#h"/></clipPath><g clip-path="url(#i)"><defs><rect id="j" width="1009.2" height="1380.4" x="4032.7" y="225.3"/></defs><clipPath id="k"><use overflow="visible" xlink:href="#j"/></clipPath></g></g><defs><path id="l" d="M4666.7,476.4c8.7,43.2-49.8,244.4-121.5,274.2c-71.8,29.8-108.6,88.2-102.7,136.6
				c5.9,48.4,19,65.1,19,65.1s-43.6-42.1-95.6,27.5c-52,69.6,70.8,109.4-2.4,189.7c-73.2,80.3-182.2-8.5-176.5,150.2
				c5.7,158.7,281.7,186.2,412.5,25.5c130.9-160.7,282.2-306.7,288.4-420.1c3.4-62.5-25.7-61-54.4-59.4
				c-23.4,1.3-46.4,2.5-51.4-30.8c-11.2-74.2,56.2-346.4-32.3-427.9c-23.1-21.3-40.4-29.7-53.2-29.7
				C4660.4,377.4,4660.3,444.5,4666.7,476.4"/></defs><clipPath id="m"><use overflow="visible" xlink:href="#l"/></clipPath><path fill="#2d65af" d="M4322.3,1343.4c61.4,1.8,106.3-51.7,139.5-96.5c35.2-47.4,67.1-97.3,96-148.8c29-51.8,54.7-105.3,77.4-160.2
			c23.1-55.9,42.9-113.2,59.3-171.5c16.7-59.1,29.9-119.1,39.6-179.8c1.2-7.5,2.3-15.1,3.4-22.6c0.5-3.3-4.5-4.7-5-1.4
			c-17.2,118.7-47.9,235.5-91.6,347.2c-42.5,108.6-97.4,212.6-164.5,308.1c-19.3,27.5-39.2,55.4-63.5,78.7
			c-24.4,23.3-55.7,42.6-90.5,41.6C4318.9,1338.1,4318.9,1343.3,4322.3,1343.4" clip-path="url(#m)"/><path fill="#2d65af" d="M4721.2 933.5c-20.1 18.6-39.4 38.2-57.7 58.6-8.9 9.9-17.1 20.6-26.2 30.4-2.9 3.1-5.6 4.5-9.8 4.4-3.2-.1-6.5-.6-9.7-.9-7.3-.7-14.6-1.3-22-2-3.3-.3-3.3 4.9 0 5.2l23 2.1c5.9.5 12.3 2 17.6-1.2 4.9-3 8.5-8.6 12.1-12.9 4.8-5.7 9.7-11.4 14.7-17 19.5-22 40-43 61.6-63C4727.3 934.9 4723.6 931.3 4721.2 933.5M4547.4 1111.5c.2-12.4-3.7-24.8-5.6-37-2.2-13.9-3.7-28-4.5-42-1.6-27.1-.6-54.3 2.9-81.2.4-3.3-4.8-3.3-5.2 0-3.4 26.9-4.4 54.1-2.9 81.2.8 12.9 2.1 25.7 4 38.5 2 13.3 6.5 27.1 6.2 40.5C4542.2 1114.8 4547.3 1114.8 4547.4 1111.5M4627.8 1127.7c-23 10.4-44.9 23.1-65.3 37.8-4.8 3.5-9.5 7-14.2 10.7-5.3 4.1-10.4 9-16.6 11.7-10.7 4.6-22.7.7-33.3 6.2-3 1.5-.3 6 2.6 4.5 10.3-5.3 22.5-1.3 33-6 5.3-2.4 9.7-6.1 14.2-9.7 5.5-4.4 11.1-8.7 16.9-12.8 20.5-14.7 42.4-27.4 65.3-37.8C4633.4 1130.8 4630.8 1126.4 4627.8 1127.7M4438.1 1241.2c3.1-45 15.6-88.5 28.3-131.6.9-3.2-4-4.6-5-1.4-12.8 43.5-25.4 87.4-28.4 132.9C4432.7 1244.5 4437.8 1244.5 4438.1 1241.2M4543.3 1308c-16.9 4-33.3 9.5-49.2 16.5-16.3 7.1-32.5 15.6-50.5 16.9-3.3.2-3.3 5.4 0 5.2 17.1-1.3 32.7-8.5 48.1-15.4 17.1-7.6 34.7-13.8 52.9-18.2C4547.9 1312.2 4546.5 1307.2 4543.3 1308M4653.2 838.1c-5.5-3.1-6.4-12.7-7.7-18.2-1.8-7.6-3.3-15.2-4.5-22.9-2.5-15.5-3.8-31.3-4-47-.1-3.3-5.2-3.3-5.2 0 .3 17.4 1.8 34.7 4.8 51.8 1.5 8.5 3.3 16.9 5.4 25.3 1.5 5.8 3 12.3 8.6 15.5C4653.5 844.2 4656.1 839.7 4653.2 838.1" clip-path="url(#m)"/><path fill="#41acab" d="M4888.2 369.7c4.9-15.1-1.8-64.9 13.9-70.5 12.1-4.3 18.8 13.5 22 23.9C4946.8 377.3 4872.3 423.8 4888.2 369.7M4973.7 736c0 0 51-140.3 114.4-149.4C5151.6 577.6 4986.7 806.3 4973.7 736"/><g opacity=".7"><defs><rect id="n" width="3591.1" height="636.4" x="1290.3" y="2546.1"/></defs><clipPath id="o"><use overflow="visible" xlink:href="#n"/></clipPath><path fill="#0a3666" d="M1555.7,3147.9c0,0-385.1-83.9-227.5-252.1c157.5-168.1,386.1-325.4,647.2-333.4
					c261.1-8,2018.4-29.9,2196.2-4c177.7,25.9,811.5,386.1,695.9,476.8c-115.6,90.7-34,117.1-1344,141.1
					C2213.5,3200.2,1555.7,3147.9,1555.7,3147.9" clip-path="url(#o)"/></g><defs><path id="p" d="M1144,2291.9c-33.2,68.5,55.7,239.4,63.7,290.7c8,51.3-66.1,2.4-41.1,77c25,74.7,49.6,218.9,152.3,305.3
				c102.7,86.4,336.1-46.7,309-153.5c-16.4-64.8-38.8-62.1-66.3-59.3c-17.8,1.8-37.7,3.6-59.5-12.9c-55.6-41.9,4.5-88-37.4-126.2
				c-41.9-38.2-57.9-3.2-57.9-3.2s4-13.2-1.9-46.5c-5.9-33.2-37.4-66.4-82.6-74.8c-45.2-8.5-48.9-142-61.9-169.4
				c-13.6-28.4-44.7-60.5-73.9-60.5C1170.7,2258.8,1155.6,2268,1144,2291.9"/></defs><clipPath id="q"><use overflow="visible" xlink:href="#p"/></clipPath><linearGradient id="r" x1="1825.751" x2="1829.921" y1="2775.132" y2="2775.132" gradientTransform="matrix(169.1163 185.7857 181.8787 -172.5025 -812548.375 141701.89)" gradientUnits="userSpaceOnUse"><stop offset="0" stop-color="#b6f2f0"/><stop offset=".13" stop-color="#b6f2f0"/><stop offset=".258" stop-color="#90dbd9"/><stop offset=".402" stop-color="#6dc6c4"/><stop offset=".548" stop-color="#52b5b4"/><stop offset=".696" stop-color="#3ea9a8"/><stop offset=".845" stop-color="#33a2a1"/><stop offset="1" stop-color="#2fa09f"/></linearGradient><polygon fill="url(#r)" points="1402.7 1981.8 2042.1 2684.1 1362.8 3328.3 723.5 2626" clip-path="url(#q)"/><g opacity=".38"><defs><rect id="s" width="796.5" height="1038.4" x="984.2" y="2106.1"/></defs><clipPath id="t"><use overflow="visible" xlink:href="#s"/></clipPath><g clip-path="url(#t)"><defs><rect id="u" width="796.5" height="1038.4" x="984.2" y="2106.1"/></defs><clipPath id="v"><use overflow="visible" xlink:href="#u"/></clipPath></g></g><defs><path id="w" d="M1144,2291.9c-33.2,68.5,55.7,239.4,63.7,290.7c8,51.3-66.1,2.4-41.1,77c25,74.7,49.6,218.9,152.3,305.3
				c102.7,86.4,336.1-46.7,309-153.5c-16.4-64.8-38.8-62.1-66.3-59.3c-17.8,1.8-37.7,3.6-59.5-12.9c-55.6-41.9,4.5-88-37.4-126.2
				c-41.9-38.2-57.9-3.2-57.9-3.2s4-13.2-1.9-46.5c-5.9-33.2-37.4-66.4-82.6-74.8c-45.2-8.5-28.4-139.1-42.7-175.1
				c-7.5-18.9-50.6-52.8-88.3-52.8C1172.4,2260.8,1155,2269.1,1144,2291.9"/></defs><clipPath id="x"><use overflow="visible" xlink:href="#w"/></clipPath><path fill="#2d65af" d="M1556.8,2845.4c-20.6,6.6-41.9-2.9-58.9-14.2c-17.3-11.5-32.5-26.1-47.5-40.4
			c-26.8-25.6-52.1-52.8-75.9-81.2c-50.3-59.8-94.1-125-131.8-193.5c-21.9-39.8-41.6-80.8-59.2-122.7c-0.8-1.9-4-1.1-3.1,0.9
			c31.7,75.4,70.2,148,115.7,216.1c43.2,64.6,92.5,125.3,148.4,179.3c16.3,15.7,32.8,31.8,51.8,44.4c17.7,11.8,40,21.4,61.4,14.5
			C1559.7,2847.9,1558.9,2844.8,1556.8,2845.4" clip-path="url(#x)"/><path fill="#2d65af" d="M1258.5 2641.6c15.6 9.9 30.7 20.5 45.3 31.8 3.7 2.9 7.3 5.8 11 8.7 3.1 2.5 6.3 6 10.1 7.4 2.9 1 5.3 0 8-1.1 4.8-2 9.6-3.9 14.4-5.9 1.9-.8 1.1-3.9-.9-3.1-4.3 1.7-8.5 3.5-12.8 5.2-2.8 1.2-5.1 2.6-8.4 1.5-1.8-.7-3.3-2.4-4.8-3.6-6.4-5.2-12.8-10.3-19.3-15.3-13.2-10-26.9-19.5-40.9-28.4C1258.3 2637.6 1256.7 2640.4 1258.5 2641.6M1392.6 2728.9c-2.6-9-2.8-18.8-4.3-28-1.4-8.9-3.1-17.7-5.2-26.5-4.3-18.3-10-36.2-17-53.6-.8-1.9-3.9-1.1-3.1.9 7 17.4 12.7 35.3 17 53.6 2.1 8.8 3.8 17.6 5.2 26.5 1.4 9.2 1.6 19 4.3 28C1390 2731.8 1393.2 2730.9 1392.6 2728.9M1347.7 2756.6c15.5 3.5 30.5 8.8 44.8 15.6 6.3 3 12.7 7.8 19.5 9.3 6.7 1.5 13-3 19.6-1.2 2 .6 2.9-2.6.9-3.1-6.8-1.8-12.9 2.6-19.6 1.2-4.1-.8-7.9-3.4-11.5-5.3-3.3-1.7-6.7-3.4-10.1-5-13.7-6.3-28-11.3-42.7-14.6C1346.5 2753 1345.6 2756.2 1347.7 2756.6M1477.5 2798.1c-10.3-29.6-25.6-57-41-84.1-1-1.8-3.9-.2-2.8 1.6 15.3 26.9 30.4 54 40.6 83.4C1475 2800.9 1478.2 2800.1 1477.5 2798.1M1429.4 2863.6c11.1 0 22 1.4 32.9 3.8 9.6 2.1 19.4 4.4 29.2 2.5 2.1-.4 1.2-3.5-.9-3.1-10.4 2-20.8-1.2-30.9-3.3-10-2.1-20.2-3.2-30.4-3.2C1427.3 2860.4 1427.3 2863.6 1429.4 2863.6M1281.5 2566.6c2.8-3.4 2.2-8.1 1.9-12.2-.4-5.7-1-11.3-1.8-17-1.6-12-4.1-23.8-7.2-35.4-.6-2-3.7-1.2-3.1.9 2.7 10.1 5 20.3 6.5 30.7.8 5.4 1.5 10.7 2 16.2.3 3.8 2.1 11.4-.5 14.6C1277.9 2565.9 1280.2 2568.2 1281.5 2566.6" clip-path="url(#x)"/><g><path fill="#80dbda" d="M1127.5,2154.5c-8.9-13.1-18.3-60.7-33.6-62.7c-11.8-1.5-12.2,16.3-11.8,26.6
			C1079.1,2173.4,1157.9,2201.6,1127.5,2154.5"/><path fill="#659cef" d="M1428,2975c0,0-73.3,132.1,39.5,132.1c112.8,0,3424.6,8.9,3430.3-66.1c5.6-75-15.3-56-55.5-98.2
			C4802.1,2900.7,1450.2,2911.4,1428,2975"/><path fill="#4a627c" d="M4181.2,2568.8c-163.6-39.5-1995.4-39.5-2138.3,0c-142.8,39.5-710.9,347.9-615,406.2
			c95.9,58.3,3330.6,50.8,3413.3,0C4924.1,2924.2,4344.8,2608.3,4181.2,2568.8"/><path fill="#86b9eb" d="M4181.2,2568.8c-163.6-39.5-1995.4-39.5-2138.3,0c-142.8,39.5-710.9,347.9-615,406.2
			c95.9,58.3,3330.6,50.8,3413.3,0C4924.1,2924.2,4344.8,2608.3,4181.2,2568.8"/><path fill="#2c63ad" d="M4028.9,2576.8c-34.8,15-1666.2,46.5-1720.8,0c-54.5-46.5,0-99.7,0-99.7h1720.8
			C4028.9,2477.1,4063.7,2561.7,4028.9,2576.8"/><path fill="#86b9eb" d="M2051.4,2452.1c205.9,49.8,2150.5,96.5,2287.8-3.2c137.3-99.7,154.2-1450,37.6-1609.8
			c-116.6-159.9-2374.8-48.4-2429.8,1.9C1892,891.2,1845.5,2402.2,2051.4,2452.1"/><g opacity=".1"><defs><rect id="y" width="2860.8" height="2055.9" x="1747.4" y="250.3"/></defs><clipPath id="z"><use overflow="visible" xlink:href="#y"/></clipPath><g clip-path="url(#z)"><defs><rect id="A" width="2860.8" height="2055.9" x="1747.4" y="250.3"/></defs><clipPath id="B"><use overflow="visible" xlink:href="#A"/></clipPath></g></g><path fill="#d6e7f7" d="M2096.2,2377.4c90.6,35.7,2150.2,0,2150.2,0S4371.9,993.5,4316,913.5c-55.8-80-2179.3-13.8-2219.8,27.1
			C2055.7,981.5,2005.6,2341.7,2096.2,2377.4"/><g opacity=".5"><defs><rect id="C" width="2589.7" height="1822.4" x="1893.3" y="721.6"/></defs><clipPath id="D"><use overflow="visible" xlink:href="#C"/></clipPath><g clip-path="url(#D)"><defs><rect id="E" width="2589.7" height="1822.4" x="1893.3" y="721.6"/></defs><clipPath id="F"><use overflow="visible" xlink:href="#E"/></clipPath></g></g><path fill="#2c64ad" d="M4427.6 2910.4l149 1.3c9.5.1 31.1 9.6 48.6 21.5 17.9 12.2 24.6 22.2 14.7 22.1l-155.4-1.4c-9.9-.1-30.9-10.2-46.6-22.3C4422.6 2919.7 4418.1 2910.3 4427.6 2910.4M4197.1 2908.5l148.4 1.3c9.5.1 28.9 9.6 43.7 21.4 15.1 12.1 19.6 22.1 9.7 22l-154.8-1.4c-9.9-.1-28.6-10.2-41.5-22.2C4190 2917.7 4187.6 2908.4 4197.1 2908.5M3967.4 2906.5l147.9 1.2c9.4.1 26.7 9.5 38.8 21.3 12.4 12.1 14.6 22 4.8 21.9l-154.1-1.4c-9.8-.1-26.2-10.1-36.5-22.1h0C3958.3 2915.7 3958 2906.4 3967.4 2906.5M3738.7 2904.6l147.3 1.2c9.4.1 24.5 9.5 34 21.2 9.7 12 9.7 21.9-.1 21.8l-153.5-1.3c-9.8-.1-23.9-10.1-31.5-22.1C3727.5 2913.8 3729.3 2904.5 3738.7 2904.6M3510.8 2902.7l146.7 1.2c9.4.1 22.4 9.4 29.2 21.1 7 12 4.8 21.8-5 21.7l-152.9-1.3c-9.7-.1-21.6-10-26.5-22C3497.6 2911.8 3501.4 2902.6 3510.8 2902.7M3283.7 2900.8l146.2 1.2c9.3.1 20.2 9.4 24.4 21.1 4.3 11.9-.1 21.7-9.8 21.6l-152.3-1.3c-9.7-.1-19.4-10-21.5-21.9C3268.5 2909.9 3274.4 2900.7 3283.7 2900.8M3057.6 2898.9l145.6 1.2c9.3.1 18.1 9.4 19.7 21 1.6 11.9-4.9 21.6-14.6 21.6l-151.7-1.3c-9.7-.1-17.1-10-16.7-21.8C3040.4 2907.9 3048.3 2898.8 3057.6 2898.9M2832.2 2897l145.1 1.2c9.3.1 16 9.3 15 20.9-1 11.8-9.7 21.6-19.3 21.5l-151.1-1.3c-9.6-.1-14.9-9.9-11.8-21.7C2813.1 2906 2823 2896.9 2832.2 2897M2607.7 2895.1l144.6 1.2c9.2.1 13.9 9.3 10.4 20.8-3.6 11.8-14.4 21.5-24 21.4l-150.6-1.3c-9.6-.1-12.7-9.9-7-21.6C2586.6 2904.1 2598.5 2895 2607.7 2895.1M2384.1 2893.2l144 1.2c9.2.1 11.8 9.3 5.7 20.8-6.2 11.7-19.1 21.4-28.7 21.3l-150-1.3c-9.6-.1-10.5-9.8-2.2-21.6C2361.1 2902.1 2374.9 2893.1 2384.1 2893.2M2161.3 2891.3l143.5 1.2c9.2.1 9.8 9.2 1.2 20.7-8.8 11.7-23.8 21.3-33.4 21.2l-149.4-1.3c-9.5-.1-8.3-9.8 2.6-21.5C2136.3 2900.2 2152.2 2891.2 2161.3 2891.3M1939.3 2889.4l142.9 1.2c9.1.1 7.7 9.2-3.4 20.6-11.4 11.7-28.5 21.2-38 21.1l-148.8-1.3c-9.5-.1-6.1-9.8 7.3-21.4h0C1912.4 2898.3 1930.2 2889.4 1939.3 2889.4M1718.2 2887.6l142.4 1.2c9.1.1 5.7 9.2-7.9 20.5-13.9 11.6-33.1 21.2-42.5 21.1l-148.2-1.3c-9.4-.1-3.9-9.7 11.9-21.3C1689.4 2896.4 1709.1 2887.5 1718.2 2887.6M4355.2 2839l113 .9c11.1.1 35.1 10.4 54.1 23.3l11.6 7.9c19.8 13.5 26.8 24.6 15.1 24.5l-119.7-1c-11.7-.1-35.9-11.4-53.5-24.8l-10.3-7.9C4348.6 2849.1 4344.2 2838.9 4355.2 2839M4162.7 2837.5l112.7.9c11 .1 32.9 10.4 49.3 23.2l10 7.9c17.1 13.4 21.8 24.6 10.2 24.5l-119.3-1c-11.7-.1-33.5-11.3-48.4-24.7l-8.7-7.9C4154.1 2847.5 4151.7 2837.4 4162.7 2837.5M3970.8 2836l112.3.9c11 .1 30.8 10.3 44.6 23.2l8.4 7.8c14.4 13.4 16.9 24.5 5.2 24.4l-118.9-1c-11.6-.1-31.2-11.3-43.4-24.7l-7.1-7.8C3960.2 2846 3959.9 2835.9 3970.8 2836M3779.6 2834.5l112 .9c11 .1 28.7 10.3 39.8 23.1l6.8 7.8c11.7 13.4 11.9 24.4.3 24.3l-118.5-1c-11.6-.1-28.9-11.2-38.4-24.6l-5.6-7.8C3767 2844.5 3768.6 2834.4 3779.6 2834.5M3588.9 2833l111.6.9c10.9.1 26.6 10.3 35.2 23l5.2 7.8c9 13.3 7 24.3-4.5 24.2l-118.1-1c-11.5-.1-26.6-11.2-33.4-24.5l-4-7.8C3574.4 2842.9 3578 2832.9 3588.9 2833M3398.9 2831.5l111.3.9c10.9.1 24.5 10.2 30.5 22.9l3.7 7.8c6.3 13.3 2.2 24.2-9.4 24.1l-117.7-1c-11.5-.1-24.3-11.2-28.4-24.4l-2.4-7.7C3382.4 2841.4 3388 2831.4 3398.9 2831.5M3209.4 2830l110.9.9c10.9.1 22.4 10.2 25.9 22.9l2.1 7.7c3.6 13.2-2.7 24.2-14.2 24.1l-117.3-1c-11.5-.1-22-11.1-23.5-24.3l-.9-7.7C3190.9 2839.9 3198.6 2829.9 3209.4 2830M3020.6 2828.5l110.6.9c10.8.1 20.3 10.2 21.3 22.8l.6 7.7c1 13.2-7.5 24.1-18.9 24l-116.9-1c-11.4-.1-19.8-11.1-18.6-24.3l.7-7.7C3000.2 2838.4 3009.8 2828.5 3020.6 2828.5M2832.3 2827.1l110.2.9c10.8.1 18.3 10.1 16.7 22.7l-1 7.7c-1.7 13.1-12.3 24-23.7 23.9l-116.5-1c-11.4-.1-17.5-11.1-13.8-24.2l2.2-7.7C2810 2836.9 2821.5 2827 2832.3 2827.1M2644.6 2825.6l109.9.9c10.8.1 16.2 10.1 12.2 22.7l-2.5 7.7c-4.3 13.1-17 23.9-28.4 23.8l-116.1-1c-11.3-.1-15.3-11-9-24.1l3.7-7.6C2620.4 2835.4 2633.9 2825.5 2644.6 2825.6M2457.5 2824.1l109.5.9c10.7.1 14.2 10.1 7.6 22.6l-4 7.6c-6.9 13.1-21.7 23.8-33.1 23.7l-115.8-1c-11.3-.1-13.1-11-4.2-24l5.2-7.6C2431.4 2833.9 2446.8 2824 2457.5 2824.1M2271 2822.7l109.2.9c10.7.1 12.2 10 3.2 22.5l-5.5 7.6c-9.4 13-26.4 23.8-37.7 23.7l-115.4-1c-11.3-.1-10.9-11 .6-23.9l6.7-7.6C2243 2832.4 2260.4 2822.6 2271 2822.7M2085.1 2821.2l108.8.9c10.7.1 10.2 10-1.3 22.4l-7 7.6c-12 13-31.1 23.7-42.3 23.6l-115-1c-11.2-.1-8.7-10.9 5.3-23.9l8.2-7.6C2055.2 2830.9 2074.5 2821.1 2085.1 2821.2M1814.9 2819.1l198.6 1.6c10.6.1 8.3 10-5.6 22.4l-8.5 7.6c-14.5 12.9-35.6 23.6-46.8 23.5l-209.8-1.7c-11.2-.1-5.6-10.9 12.1-23.7l10.4-7.5C1782.4 2828.7 1804.4 2819 1814.9 2819.1M4174.2 2770.1l194.9 1.4c10.3.1 31.6 8.9 47.9 20.1l19.4 13.2c17.3 11.7 22.7 21.4 11.8 21.3l-206.9-1.6c-10.9-.1-31.4-9.8-45.6-21.5l-15.9-13.2C4166.3 2778.7 4163.9 2770 4174.2 2770.1M4013.3 2768.9l106 .8c10.2.1 29 8.9 42.2 20l15.7 13.1c13.9 11.7 16.7 21.3 5.8 21.2l-112.5-.9c-10.8-.1-29.6-9.8-41.6-21.5l-13.5-13.1C4003.9 2777.5 4003.1 2768.8 4013.3 2768.9M3833.5 2767.6l105.7.8c10.2.1 27.1 8.9 38.1 19.9l13 13.1c11.5 11.6 12.3 21.2 1.5 21.2l-112.2-.9c-10.8-.1-27.6-9.8-37.2-21.4l-10.9-13.1C3822.3 2776.2 3823.3 2767.5 3833.5 2767.6M3654.2 2766.3l105.4.8c10.2.1 25.3 8.9 34 19.9l10.3 13.1c9.2 11.6 8 21.2-2.8 21.1l-111.8-.9c-10.8-.1-25.5-9.8-32.8-21.3l-8.2-13C3641.3 2774.8 3644 2766.2 3654.2 2766.3M3475.4 2765l105 .8c10.1.1 23.5 8.8 29.9 19.8l7.6 13c6.8 11.6 3.7 21.1-7 21l-111.5-.9c-10.7-.1-23.5-9.7-28.4-21.3l-5.5-13C3460.8 2773.5 3465.3 2764.9 3475.4 2765M3297.2 2763.7l104.7.8c10.1.1 21.6 8.8 25.8 19.8l5 13c4.4 11.5-.6 21-11.3 21l-111.1-.9c-10.7-.1-21.5-9.7-24.1-21.2l-2.9-13C3280.9 2772.2 3287.1 2763.6 3297.2 2763.7M3119.5 2762.4l104.4.8c10.1.1 19.8 8.8 21.8 19.7l2.4 12.9c2.1 11.5-4.8 21-15.5 20.9l-110.8-.9c-10.7-.1-19.5-9.7-19.8-21.1l-.3-12.9C3101.5 2770.9 3109.4 2762.3 3119.5 2762.4M2942.3 2761.1l104.1.8c10 .1 18 8.8 17.8 19.6l-.2 12.9c-.2 11.5-9 20.9-19.7 20.8l-110.4-.9c-10.6-.1-17.6-9.6-15.5-21.1l2.3-12.9C2922.6 2769.6 2932.3 2761 2942.3 2761.1M2765.6 2759.8l103.8.8c10 .1 16.2 8.7 13.8 19.6l-2.8 12.9c-2.5 11.4-13.2 20.9-23.8 20.8l-110.1-.9c-10.6-.1-15.6-9.6-11.3-21l4.9-12.8C2744.3 2768.2 2755.6 2759.7 2765.6 2759.8M2589.5 2758.5l103.5.8c10 .1 14.5 8.7 9.9 19.5l-5.4 12.8c-4.8 11.4-17.4 20.8-28 20.7l-109.7-.9c-10.6-.1-13.6-9.6-7-20.9l7.5-12.8C2566.5 2766.9 2579.5 2758.4 2589.5 2758.5M2414.8 2757.2l103.2.8c10 .1 12.7 8.7 6 19.5l-8 12.8c-7.1 11.4-21.5 20.7-32 20.6l-109.4-.8c-10.5-.1-11.7-9.5-2.8-20.9l10-12.8C2390.2 2765.6 2404.9 2757.2 2414.8 2757.2M2239.7 2756l102.9.8c9.9.1 10.9 8.7 2.1 19.4l-10.5 12.8c-9.3 11.3-25.6 20.7-36.1 20.6l-109.1-.8c-10.5-.1-9.8-9.5 1.3-20.8l12.5-12.7C2213.4 2764.3 2229.8 2755.9 2239.7 2756M1903.6 2753.5l279.3 2c9.9.1 9.4 8.6-1.5 19.4l-12.8 12.7c-11.4 11.3-29.3 20.6-39.8 20.5l-295.9-2.3c-10.4-.1-6.1-9.5 9.3-20.7l17.4-12.6C1874.2 2761.8 1893.8 2753.4 1903.6 2753.5M4062.7 2714.5l226 1.5c9.6.1 28.8 7.9 43.2 17.6l17 11.6c15.1 10.3 19.3 18.7 9.2 18.6l-239.1-1.7c-10.1-.1-28.2-8.6-40-18.8l-13.4-11.5C4054.3 2722.1 4053.2 2714.5 4062.7 2714.5M3900.4 2713.4l97.5.7c9.6.1 26 7.8 36.9 17.5l12.9 11.5c11.5 10.2 12.8 18.6 2.6 18.5l-103.1-.7c-10.1-.1-26.5-8.6-36.3-18.8l-11.1-11.5C3890.5 2721 3890.8 2713.4 3900.4 2713.4M3734.2 2712.3l97.2.7c9.5.1 24.4 7.8 33.4 17.5l10.6 11.5c9.4 10.2 9 18.6-1.1 18.5l-102.8-.7c-10.1-.1-24.7-8.5-32.5-18.7l-8.8-11.5C3722.8 2719.8 3724.6 2712.2 3734.2 2712.3M3568.4 2711.2l97 .7c9.5.1 22.8 7.8 29.8 17.4l8.3 11.4c7.4 10.2 5.3 18.5-4.8 18.4l-102.5-.7c-10-.1-23-8.5-28.7-18.6l-6.5-11.4C3555.6 2718.7 3558.9 2711.1 3568.4 2711.2M3403.1 2710l96.7.7c9.5.1 21.2 7.8 26.3 17.4l6 11.4c5.3 10.1 1.6 18.4-8.4 18.4l-102.2-.7c-10-.1-21.2-8.5-25-18.6l-4.2-11.4C3388.8 2717.5 3393.6 2710 3403.1 2710M3238.3 2708.9l96.4.7c9.5.1 19.6 7.7 22.8 17.3l3.7 11.4c3.3 10.1-2.1 18.4-12.1 18.3l-101.9-.7c-10-.1-19.5-8.5-21.2-18.5l-1.9-11.4C3222.5 2716.4 3228.8 2708.8 3238.3 2708.9M3073.9 2707.8l96.2.7c9.4.1 18.1 7.7 19.3 17.3l1.5 11.3c1.3 10.1-5.7 18.3-15.7 18.3l-101.6-.7c-10-.1-17.8-8.4-17.5-18.5l.3-11.3C3056.6 2715.3 3064.5 2707.7 3073.9 2707.8M2910 2706.7l95.9.7c9.4.1 16.5 7.7 15.8 17.2l-.8 11.3c-.7 10-9.4 18.3-19.3 18.2l-101.3-.7c-9.9-.1-16.1-8.4-13.8-18.4l2.6-11.3C2891.2 2714.1 2900.6 2706.6 2910 2706.7M2746.5 2705.5l95.6.7c9.4.1 15 7.7 12.4 17.2l-3 11.3c-2.7 10-13 18.2-22.9 18.2l-101-.7c-9.9-.1-14.4-8.4-10.1-18.4l4.8-11.3C2726.3 2713 2737.1 2705.5 2746.5 2705.5M2583.4 2704.4l95.4.7c9.4.1 13.4 7.7 9 17.2l-5.3 11.3c-4.7 10-16.6 18.2-26.5 18.1l-100.7-.7c-9.9-.1-12.7-8.4-6.5-18.3l7-11.2C2561.8 2711.8 2574.1 2704.4 2583.4 2704.4M2421.7 2703.3l95.1.7c9.3.1 11.9 7.6 5.6 17.1l-7.5 11.2c-6.6 10-20.1 18.1-30 18.1l-100.5-.7c-9.8-.1-11.1-8.3-2.9-18.3l9.2-11.2C2398.6 2710.7 2412.3 2703.3 2421.7 2703.3M2258.2 2702.2l94.9.6c9.3.1 10.4 7.6 2.2 17.1l-9.7 11.2c-8.6 9.9-23.7 18.1-33.5 18l-100.2-.7c-9.8-.1-9.4-8.3.8-18.2l11.4-11.2C2233.7 2709.6 2248.9 2702.1 2258.2 2702.2M1975.6 2700.3l215.6 1.5c9.3.1 8.8 7.6-1.2 17l-11.9 11.2c-10.5 9.9-27.2 18-37 18l-227.6-1.6c-9.8-.1-6.5-8.3 7-18.1l15.3-11.1C1948.6 2707.6 1966.3 2700.2 1975.6 2700.3M4074.8 2666.3l143 .9c9 .1 26.5 7 39.2 15.6l15 10.2c13.3 9 16.6 16.5 7 16.4l-150.8-1c-9.5-.1-26.5-7.6-37.8-16.6l-12.7-10.2C4067 2673 4065.8 2666.2 4074.8 2666.3M4058.1 2623.8l97.8.6c8.5 0 24.5 6.2 35.8 13.9l9.3 6.3c11.8 8 14.2 14.6 5.2 14.5l-102.4-.7c-8.9-.1-24.7-6.7-35.1-14.7l-8.2-6.3C4050.6 2629.9 4049.6 2623.8 4058.1 2623.8M3909.7 2622.9l97.5.6c8.5 0 23.2 6.2 33 13.9l8 6.3c10.1 8 11.3 14.5 2.3 14.5l-102.1-.7c-8.9-.1-23.4-6.7-32.1-14.6l-6.9-6.3C3901 2628.9 3901.2 2622.9 3909.7 2622.9M3761.7 2622l97.3.6c8.5.1 22 6.2 30.2 13.9l6.7 6.3c8.5 8 8.4 14.5-.6 14.4l-101.9-.7c-8.9-.1-22-6.7-29.2-14.6l-5.7-6.3C3751.8 2628 3753.2 2622 3761.7 2622M3584.5 2621l127.1.8c8.5 0 20.7 6.2 27.4 13.8l5.5 6.3c6.9 7.9 5.5 14.4-3.4 14.4l-133-.8c-8.9-.1-20.4-6.6-25.6-14.6l-4.1-6.3C3573.2 2626.9 3576 2620.9 3584.5 2621M2851.4 2616.5l666.3 4.1c8.5 0 19 6.2 23.7 13.8l3.8 6.3c4.8 7.9 1.7 14.4-7.2 14.3l-697.3-4.4c-8.7-.1-13.7-6.6-11.1-14.4l2.1-6.2C2834.3 2622.4 2843.1 2616.5 2851.4 2616.5M3926.3 2665.3l91.9.6c9 .1 24.7 6.9 35.1 15.5l12.4 10.2c11 9 12.4 16.4 2.8 16.4l-96.8-.7c-9.5-.1-25.1-7.6-34.6-16.6l-10.8-10.2C3917.2 2672 3917.3 2665.3 3926.3 2665.3M3769.6 2664.3l91.6.6c9 .1 23.2 6.9 32 15.5l10.3 10.2c9.2 9 9.1 16.4-.4 16.3l-96.6-.7c-9.5-.1-23.5-7.5-31.3-16.5l-8.7-10.1C3759.2 2671 3760.7 2664.3 3769.6 2664.3M3613.4 2663.3l91.4.6c9 .1 21.8 6.9 28.8 15.5l8.3 10.1c7.4 9 5.8 16.3-3.7 16.3l-96.3-.7c-9.4-.1-22-7.5-27.9-16.5l-6.7-10.1C3601.7 2670 3604.5 2663.2 3613.4 2663.3M3457.6 2662.3l91.1.6c8.9.1 20.4 6.9 25.7 15.4l6.3 10.1c5.6 8.9 2.5 16.3-6.9 16.2l-96-.7c-9.4-.1-20.5-7.5-24.6-16.4l-4.7-10.1C3444.6 2669 3448.7 2662.2 3457.6 2662.3M3302.2 2661.3l90.9.6c8.9.1 19 6.9 22.6 15.4l4.2 10.1c3.8 8.9-.8 16.2-10.2 16.2l-95.8-.7c-9.4-.1-18.9-7.5-21.3-16.4l-2.6-10C3287.8 2668 3293.3 2661.2 3302.2 2661.3M3147.2 2660.3l90.7.6c8.9.1 17.6 6.9 19.5 15.3l2.2 10c2 8.9-4 16.2-13.4 16.1l-95.5-.7c-9.4-.1-17.4-7.5-18-16.3l-.6-10C3131.5 2666.9 3138.3 2660.3 3147.2 2660.3M2992.6 2659.3l90.4.6c8.9.1 16.2 6.8 16.4 15.3l.2 10c.2 8.9-7.2 16.2-16.6 16.1l-95.3-.6c-9.3-.1-15.9-7.4-14.7-16.3l1.3-10C2975.6 2665.9 2983.7 2659.3 2992.6 2659.3M2838.3 2658.3l90.2.6c8.9.1 14.9 6.8 13.4 15.3l-1.8 10c-1.6 8.8-10.4 16.1-19.7 16.1l-95-.6c-9.3-.1-14.4-7.4-11.5-16.2l3.3-10C2820.1 2664.9 2829.5 2658.3 2838.3 2658.3M2685.3 2657.3l90 .6c8.8.1 13.5 6.8 10.4 15.2l-3.7 10c-3.3 8.8-13.6 16.1-22.9 16l-94.7-.6c-9.3-.1-12.9-7.4-8.3-16.2l5.3-9.9C2665.8 2663.9 2676.5 2657.3 2685.3 2657.3M2682.4 2615.5l113.6.7c8.4.1 12.9 6.1 10.2 13.6l-2.3 6.2c-2.9 7.8-12.3 14.2-21.1 14.2l-118.8-.8c-8.7-.1-12.2-6.5-7.8-14.3l3.5-6.2C2663.9 2621.4 2674.1 2615.4 2682.4 2615.5M2530.2 2614.6l86.1.5c8.3.1 11.4 6.1 6.8 13.6l-3.8 6.2c-4.8 7.8-15.8 14.2-24.5 14.1l-90.1-.6c-8.7-.1-10.8-6.5-4.8-14.3l4.8-6.1C2510.5 2620.4 2521.9 2614.5 2530.2 2614.6M2380.3 2613.6l96 .6c4.2 0 5.2 3.1 2.1 6.9-3.1 3.8-9.2 6.9-13.5 6.9l-97.7-.6c-4.3 0-4.8-3.2-1.1-7C2369.7 2616.6 2376.1 2613.6 2380.3 2613.6M2240.8 2612.8l95.7.6c4.2 0 4.6 3.1.8 6.8-3.8 3.8-10.5 6.9-14.8 6.9l-97.5-.6c-4.3 0-4.2-3.2.2-7C2229.7 2615.8 2236.6 2612.8 2240.8 2612.8M2087.8 2611.9l95.5.6c4.2 0 4 3.1-.6 6.8-4.6 3.8-11.9 6.9-16.2 6.9l-97.3-.6c-4.3 0-3.5-3.1 1.7-6.9C2076 2614.8 2083.6 2611.8 2087.8 2611.9M2217.7 2632.9l98.4.6c4.4 0 4.7 3.2.7 7.2-4.1 4-11 7.3-15.4 7.3l-100.2-.6c-4.4 0-4.2-3.3.5-7.4C2206.1 2636.1 2213.3 2632.9 2217.7 2632.9M2530 2656.3l89.7.6c8.8.1 12.1 6.8 7.3 15.2l-5.7 9.9c-5.1 8.8-16.8 16-26 16l-94.5-.6c-9.3-.1-11.4-7.4-5-16.2l7.3-9.9C2509.2 2662.9 2521.2 2656.3 2530 2656.3M2379.5 2655.4l89.5.6c8.8.1 10.8 6.8 4.3 15.1l-7.6 9.9c-6.8 8.8-19.9 16-29.1 15.9l-94.2-.6c-9.2-.1-10-7.4-1.9-16.1l9.2-9.9C2357.5 2661.9 2370.8 2655.3 2379.5 2655.4M2039.3 2653.2l284.3 1.8c8.8.1 9.5 6.8 1.5 15.1l-9.5 9.9c-8.4 8.8-22.8 15.9-32.1 15.9l-299.2-2c-9.2-.1-6.7-7.3 5.2-16l13.5-9.8C2014.4 2659.7 2030.6 2653.1 2039.3 2653.2"/><path fill="#e65e75" d="M3375.5,1705.3c6.5-5.7,12.6-11.6,18.3-17.9C3387.1,1692.7,3380.9,1698.7,3375.5,1705.3 M3033.6,1684.3
			c5.4,6,11,11.8,16.9,17.2C3045.4,1695.2,3039.7,1689.5,3033.6,1684.3"/><path fill="#e94335" d="M3700.9,1522.5c0,128.6-50,245.6-131.6,332.5c0,0,0,0,0,0c-8.2,8.7-16.7,17.2-25.5,25.2c0,0,0,0,0,0
			c-20.4,15-45.7,23.8-73.1,23.8c-66,0-119.7-51.4-122.7-115.8c-0.1-1.9-0.2-3.8-0.2-5.8c0-1.8,0-3.6,0.1-5.5
			c0.2-3.6,0.5-7.2,0.9-10.7c0.2-1.4,0.4-2.8,0.6-4.3c3.5-21.3,12.7-40.7,26-56.7l0,0c6.5-5.7,12.6-11.6,18.3-17.9l0,0
			c40-43.3,64.4-101.2,64.4-164.9c0-64.6-25.2-123.4-66.4-167l-0.1-0.1c-1.1-1.1-2.2-2.3-3.3-3.4c21.8,19.7,50.7,31.9,82.5,31.9
			c67.8,0,122.7-54.9,122.7-122.7c0-23.7-6.7-45.8-18.4-64.6C3653.4,1282.8,3700.9,1397.1,3700.9,1522.5"/><path fill="#fabb05" d="M3543.7,1880.3c-86.5,79.5-201.9,128-328.6,128c-132.8,0-253.1-53.2-340.8-139.6
			c21.5,18.8,49.8,30.3,80.8,30.3c67.6,0,122.3-54.4,122.3-121.5c0-28.7-10.1-55.2-26.9-76c43.3,39.9,101.1,64.2,164.6,64.2
			c61.5,0,117.5-22.8,160.4-60.3c-13.3,16-22.4,35.4-26,56.7c-0.2,1.4-0.5,2.9-0.6,4.3c-0.5,3.5-0.8,7.1-0.9,10.7
			c-0.1,1.8-0.1,3.6-0.1,5.5c0,1.9,0,3.8,0.2,5.8c3,64.4,56.8,115.8,122.7,115.8C3498,1904.2,3523.3,1895.3,3543.7,1880.3"/><path fill="#88b0f4" d="M3533.5,1155.6c-18.3-10.9-39.6-17.1-62.4-17.1c-67.7,0-122.7,54.9-122.7,122.7c0,32.6,12.7,62.2,33.4,84.2
			c-1.2-1.1-2.3-2.2-3.5-3.2c-43.2-39.1-100.4-62.9-163.2-62.9c-134.3,0-243.2,108.9-243.2,243.2c0,62.2,23.3,118.9,61.7,161.9
			c-21.2-17.7-48.6-28.3-78.5-28.3c-67.6,0-122.3,54.4-122.3,121.5c0,29.3,10.5,56.2,27.8,77.2c-81.4-86.9-131.3-203.8-131.3-332.2
			c0-268.3,217.5-485.8,485.8-485.8C3336.9,1036.6,3448.3,1081.5,3533.5,1155.6"/><path fill="#fff" d="M3458.3,1522.5c0,63.6-24.4,121.5-64.4,164.9l0,0c-6.7,5.3-12.9,11.4-18.3,17.9l0,0
			c-42.8,37.6-98.9,60.3-160.4,60.3c-63.5,0-121.3-24.3-164.6-64.2c-5-6.3-10.7-12-16.9-17.2c-38.4-43-61.7-99.7-61.7-161.9
			c0-134.3,108.9-243.2,243.2-243.2c62.8,0,120.1,23.8,163.2,62.9c1.2,1.1,2.3,2.1,3.5,3.2c0.2,0.1,0.3,0.3,0.5,0.5
			c1.8,1.9,3.8,3.8,5.8,5.7c0.2,0.2,0.3,0.3,0.5,0.5c1.1,1.1,2.2,2.3,3.3,3.4l0.1,0.1C3433.1,1399.1,3458.3,1457.9,3458.3,1522.5"/><path fill="#fff" d="M3050.5 1701.5c-5.9-5.4-11.6-11.2-16.9-17.2C3039.7 1689.5 3045.4 1695.2 3050.5 1701.5M3393.8 1687.4c-5.8 6.3-11.9 12.3-18.3 17.9C3380.9 1698.7 3387.1 1692.7 3393.8 1687.4"/><path fill="#88b0f4" d="M3593.8,1261.2c0,67.8-54.9,122.7-122.7,122.7c-31.8,0-60.8-12.1-82.5-31.9c-0.2-0.2-0.3-0.3-0.5-0.5
			c-2-1.8-3.9-3.7-5.8-5.7c-0.2-0.2-0.3-0.3-0.5-0.5c-20.7-22-33.4-51.6-33.4-84.2c0-67.8,54.9-122.7,122.7-122.7
			c22.8,0,44.1,6.2,62.4,17.1c14.8,12.8,28.8,26.5,41.9,41C3587.1,1215.4,3593.8,1237.5,3593.8,1261.2"/><path fill="#fff" d="M3393.8,1687.4c-5.8,6.3-11.9,12.3-18.3,17.9C3380.9,1698.7,3387.1,1692.7,3393.8,1687.4"/><path fill="#34a753" d="M3077.4,1777.5c0,67.1-54.8,121.5-122.3,121.5c-31,0-59.2-11.4-80.8-30.3c-4.6-4.5-9.1-9.2-13.6-13.9
			c0,0-0.1-0.1-0.1-0.1c-17.4-21-27.8-47.9-27.8-77.2c0-67.1,54.8-121.5,122.3-121.5c29.9,0,57.3,10.6,78.5,28.3
			c5.4,6,11,11.8,16.9,17.2C3067.4,1722.3,3077.4,1748.8,3077.4,1777.5"/><path fill="#fff" d="M3050.5 1701.5c-5.9-5.4-11.6-11.2-16.9-17.2C3039.7 1689.5 3045.4 1695.2 3050.5 1701.5M3162.9 2035c-5.9-5.4-11.6-11.2-16.9-17.2C3152.2 2023 3157.9 2028.7 3162.9 2035"/><g opacity=".9"><defs><rect id="G" width="1065.2" height="153" x="3774.3" y="2838.9"/></defs><clipPath id="H"><use overflow="visible" xlink:href="#G"/></clipPath><path fill="#3d5f93" d="M4839.4,2902.1c-6.2,87.1-357.3,86.2-461.5,89.7c-104.2,3.5-607.6-49.3-603.6-107.2
					C3778.3,2826.7,4845.6,2815,4839.4,2902.1" clip-path="url(#H)"/></g><path fill="#1b2c49" d="M4060.1,2824.6c-1.8-24.3,20.9-39.7,46.5-46.1c34.2-8.6,92.7,27,92.7,27c20.2-1.8,22.2-31,22.2-31l45.4,8.1
			c0,0,6.4,67.8-7.8,99.7C4188.5,2890.6,4109.1,2873.8,4060.1,2824.6"/><path fill="#aecff1" d="M4259.1,2882.2c-4.4,9.8-10.7,16.2-19.8,16.1c-38.6-0.4-141-6.1-168.4-46.4c-6.9-10.1-10.2-19.2-10.8-27.4
			C4109.1,2873.8,4188.5,2890.6,4259.1,2882.2"/><path fill="#e65e75" d="M4170.4,2772.9c0,0,7.5,48.9,1.6,37c-5.8-12-13.5-42.2-23.2-43.3c-9.7-1.1-5.7,33.5-16.1,30.5
			c-10.3-3,1.8-37.6-7.6-38.2c-9.4-0.6-13.3,30.6-19.3,29.8c6,1.8,14.1-17,16.1-23.9c2-6.9,5.8-1.3,4.8,3.4
			c-1,4.7-6.4,31.1,5.9,31.5c12.3,0.4,13.7-22.2,14.2-24.2c0.5-2,4.5-5.8,7-0.9c2.4,4.8,13.8,42.1,20.3,41.6
			C4180.6,2815.7,4176.4,2782.3,4170.4,2772.9"/><path fill="#304c6a" d="M4307.9,1964.3c14.9-89.2,66.2-161.9,83.1-247.6c-63-12.4-113.9-10.7-116.3,23.6c0,0-62.3,145.5-73.9,327.2
			c-18.4,289.3,11.8,672,20.9,719.2c44.7,28.6,44.5,10.3,44.5,10.3s67.9-72.7,81.8-239.5c-21.1-40.3-40.3-81.6-52.6-126.2
			C4249.6,2277.1,4278.7,2122.8,4307.9,1964.3"/><path fill="#1b2d3d" d="M4347.1,2422.4c-2.2-25.3-5.6-52-10.4-80.1c5-10.3,10.7-22.9,16.9-37.1c65.5-150.1,188-493.3,173.8-548.7
			c-10.2-3.7-20.8-7.5-31.5-11.1c-15.5-5.2-31.4-10.2-47.2-14.6c-19.7-5.6-39.2-10.4-57.7-14c-16.9,85.7-68.2,158.3-83.1,247.6
			c-29.2,158.5-58.4,312.8-12.5,467.1c12.3,44.6,31.5,85.9,52.6,126.2C4351.3,2517.9,4351.6,2473,4347.1,2422.4"/><path fill="#aecff1" d="M4688,2820.7c7.4,15.6,9.6,29.8-0.3,37.7c-30.2,24-113.1,84.4-159.8,70.5c-16-4.8-25.7-12.2-30.7-21.2
			C4572.9,2907.5,4645.3,2887.7,4688,2820.7"/><path fill="#1b2c49" d="M4509,2849.5c21-28.2,88.9-37.7,88.9-37.7c14.6-14.2-2.4-38.1-2.4-38.1l40.3-22.4c0,0,37,37.5,52.1,69.4
			c-42.7,66.9-115.1,86.7-190.8,87.1C4487.5,2890.6,4495.2,2868.1,4509,2849.5"/><path fill="#14283a" d="M4524.8,2051.9c-16.7,95.9-70.9,200.2-33.4,283.6c43.6,93,60.9,222.3,123.7,307.8
			c-34.3-119.1-86-294-100.1-318.5c28-139,104.2-507,33.7-562.4c-6.8-0.9-13.2-1.9-19.5-3C4531.4,1855.5,4544,1951.9,4524.8,2051.9"/><path fill="#304c6a" d="M4491.4,2335.5c-37.5-83.4,16.7-187.7,33.4-283.6c19.2-100,6.6-196.4,4.5-292.5
			c-117.8-20.6-150.8-77-164.6-30.1c0,0-65.1,571.5,12.6,697.1c77.6,125.6,208.4,353.4,208.4,353.4l61.3-25.1
			c0,0-13.4-47.7-31.8-111.5C4552.3,2557.8,4535,2428.4,4491.4,2335.5"/><path fill="#e65e75" d="M4572.8,2797.5c0,0,35.2,34.8,23.4,28.6c-11.8-6.1-36.1-25.8-44.5-20.8c-8.4,5,15.4,30.3,5.4,34.1
			s-21-31.2-29-26c-7.9,5.2,7.7,32.5,2.3,35.4c5.9-2.2,1.1-22-1.4-28.8c-2.5-6.7,3.9-4.5,5.9-0.2c2,4.4,13.5,28.8,23.6,21.7
			c10.1-7.1-2.3-26-3.1-27.9c-0.8-1.9,0.2-7.3,5-4.9c4.8,2.4,36.2,25.5,41.2,21.2C4606.6,2825.7,4583.3,2801.4,4572.8,2797.5"/><path fill="#ffa730" d="M4399.2,1462.5c-5.1-18.5-13.9-70-62.6-58.6c-48.8,11.5-52.1,13.3-49.7,25.6c2.3,12.3-11.1,33-67.3,77.7
			c-73.7,58.6-280.9,48.9-280.9,48.9s2.4,35.6,17,34.9c14.6-0.6,212.2,51.9,297.1-6.2C4337.6,1526.6,4404.3,1481,4399.2,1462.5"/><path fill="#ff7116" d="M4373.9,1339.1c-1.7-0.5-3.3-0.7-4.8-0.4c-27.5,0-51.4,13.8-55.4,19.1c-4,5.3-27.9,14.1-32.2,106.9
			c-1.9,108.6-22.9,359.4,15.9,372c37.4,12.1,181.1,49.2,270-11.2c-7.1-32.2-19.7-63.9-38.6-94.6
			C4452.7,1606.6,4403.5,1478.4,4373.9,1339.1"/><path fill="#e24b00" d="M4556.3,1745.4c0,0-129.7-390-182.4-406.3c29.6,139.4,78.8,267.5,154.9,391.7c18.9,30.7,31.4,62.5,38.6,94.6
			c3.5-2.4,6.9-4.8,10.2-7.5C4604.5,1795.9,4556.3,1745.4,4556.3,1745.4"/></g><g><defs><path id="I" d="M4274.8,1304.1c0,0,39.9,64.2,43.2,85c34.7-3.1,47.3-23.6,45.1-30.9c-42.5-49.5-57.8-73.1-60.2-83.2
				c-0.4-1.6-1.4-2.3-2.9-2.3C4292.4,1272.8,4273.1,1292.4,4274.8,1304.1"/></defs><clipPath id="J"><use overflow="visible" xlink:href="#I"/></clipPath><linearGradient id="K" x1="1796.279" x2="1800.449" y1="2808.155" y2="2808.155" gradientTransform="rotate(173.972 21306.73 27523.393) scale(19.7123)" gradientUnits="userSpaceOnUse"><stop offset="0" stop-color="#ffc7d0"/><stop offset="1" stop-color="#e65e75"/></linearGradient><polygon fill="url(#K)" points="4364.2 1263.1 4261 1274 4274.1 1398.7 4377.4 1387.8" clip-path="url(#J)"/></g><g><defs><path id="L" d="M4255.3,1215.7c0,0-42.4,80.9-3.4,110.1c36.4,14,85.3-28.7,90.4-62.5c-33.5-40-62.9-50.5-77.6-50.5
				C4259.7,1212.8,4256.5,1214,4255.3,1215.7"/></defs><clipPath id="M"><use overflow="visible" xlink:href="#L"/></clipPath><linearGradient id="N" x1="1816.789" x2="1820.959" y1="2814.228" y2="2814.228" gradientTransform="rotate(-159.316 17961.245 38096.03) scale(24.0596)" gradientUnits="userSpaceOnUse"><stop offset="0" stop-color="#ffc7d0"/><stop offset="1" stop-color="#e65e75"/></linearGradient><polygon fill="url(#N)" points="4384.2 1228.7 4229.1 1170.1 4171 1324 4326.1 1382.6" clip-path="url(#M)"/></g><g><path fill="#00000c" d="M4233.7,1183.6c0,0-3.8,40.5,76,70.4c8.1,30.2,1.3,59.2,3.4,66.9c2.1,7.7,24.3,15.4,34.4,10
			c10.1-5.4-4.9-43.5,12.6-61.7c17.5-18.2,17.8-40.9-16.4-55.2C4309.6,1199.5,4235.4,1139.9,4233.7,1183.6"/><path fill="#00000c" d="M4298.6,1242.7c0,0-12.7,54-32.5,56.3c-19.8,2.3-31,0.7-31,0.7s-4.5,31.4,41.5,32.5
			c14.2,0.6,16.6-2.6,16.6-2.6s-14.5-24.1,0-54.1c14.6-30,23.4-29.9,23.4-29.9S4306.3,1221.6,4298.6,1242.7"/></g><g><defs><path id="O" d="M3888.5,1552c-22.7-0.5-39.8-1.6-17.8,38.9c0.8,1.5,2.4,1.6,3,3c7.2,9.8,24.7,6.5,36.2,2.6
				c43.1-27.3,23.5-45.9-6.5-45.9C3898.7,1550.5,3893.6,1551,3888.5,1552"/></defs><clipPath id="P"><use overflow="visible" xlink:href="#O"/></clipPath><linearGradient id="Q" x1="1796.867" x2="1801.037" y1="2783.56" y2="2783.56" gradientTransform="rotate(128.391 25564.163 16332.382) scale(15.2594)" gradientUnits="userSpaceOnUse"><stop offset="0" stop-color="#ffc7d0"/><stop offset="1" stop-color="#e65e75"/></linearGradient><polygon fill="url(#Q)" points="3888.9 1499.7 3822.9 1583 3912.8 1654.3 3978.9 1570.9" clip-path="url(#P)"/></g><g><path fill="#fff" d="M3938.3,1535.2l-25.5,12.6l14.8,51.7c0,0,27.5,9.1,28,0.7c0.6-8.3-17.7-48.4-13.1-52.9
			C3947.1,1542.7,3942.6,1533.1,3938.3,1535.2"/><path fill="#e94335" d="M4092.6,1461.2c122.7,38.5,219.3,121.3,277.8,225.2c0,0,0,0,0,0c5.9,10.4,11.4,21.1,16.4,31.9c0,0,0,0,0,0
			c8.2,23.9,9.1,50.7,0.9,76.8c-19.8,62.9-84.9,98.8-147.3,82.4c-1.9-0.5-3.7-1-5.6-1.6c-1.7-0.5-3.5-1.1-5.2-1.7
			c-3.4-1.2-6.7-2.6-10-4.1c-1.3-0.6-2.6-1.3-3.9-1.9c-19.3-9.8-35.1-24.3-46.3-41.8l0,0c-3.5-7.8-7.3-15.5-11.6-22.9l0,0
			c-29.3-51.2-77.3-91.8-138-110.9c-61.7-19.4-125.3-12.9-179.2,13.3c0,0,0,0-0.1,0.1c-1.4,0.7-2.8,1.4-4.2,2.1
			c25.4-14.8,45.6-38.9,55.1-69.2c20.3-64.7-15.6-133.5-80.3-153.8c-22.6-7.1-45.7-7.3-67.1-1.8
			C3849.7,1434.7,3972.9,1423.6,4092.6,1461.2"/><path fill="#f7cd23" d="M4112.6,1698.4l60.6-62c10.4-10.6,10.9-27.3,1.4-38.6l-106.1-125.1c-10.3-12.1-28.4-13.6-40.5-3.3
			c-12.1,10.3-13.6,28.4-3.3,40.5l89.2,105.2l-42.3,43.3c-11.1,11.3-10.9,29.5,0.5,40.6C4083.3,1710,4101.5,1709.8,4112.6,1698.4
			L4112.6,1698.4z"/><path fill="#f59a03" d="M4100.5,1655.1c13.3,4.2,20.7,18.4,16.5,31.7c-4.2,13.3-18.4,20.7-31.7,16.5c-13.3-4.2-20.7-18.4-16.5-31.7
			C4073,1658.3,4087.2,1650.9,4100.5,1655.1"/><path fill="#ffa829" d="M4106.4,1774.6l-0.3,5.6c0,0,148.9,80.3,202.4,26.7c71.5-71.7,103-206.8,112.2-277.4
			c2.7-20.8,5.1-43.4,4.8-64.2c-61.7,76.8-46.9,199-105.1,286.3C4270.6,1828.3,4182,1799.3,4106.4,1774.6"/><path fill="#ffc261" d="M4342.2,1397.8c-93.9,30.2-23.2,165.5-80.8,283.9c-58.5,120.5-153.6,63.7-153.6,63.7l-1.5,29.2
			c75.5,24.6,164.2,53.7,214-23c58.2-87.3,43.5-209.5,105.1-286.3C4424.9,1415.6,4408.5,1376.4,4342.2,1397.8"/></g><g><defs><path id="R" d="M4025.8,1725c-5.7,42.2,69.8,56,69.8,56c12.7,0.9,11.1-28.2,9.4-33.8c-1.6-5-19-34.9-28.5-34.9
				c-5.3,0-4,4.4-2.1,8c-8-10.6-20-20-30.2-20C4035.6,1700.2,4028.3,1706.8,4025.8,1725"/></defs><clipPath id="S"><use overflow="visible" xlink:href="#R"/></clipPath><linearGradient id="T" x1="1797.811" x2="1801.981" y1="2795.811" y2="2795.811" gradientTransform="scale(-14.1762 14.1762) rotate(61.185 3017.232 -305.446)" gradientUnits="userSpaceOnUse"><stop offset="0" stop-color="#ffc7d0"/><stop offset="1" stop-color="#e65e75"/></linearGradient><polygon fill="url(#T)" points="4142.8 1719.2 4087.8 1819.1 3985.6 1762.9 4040.6 1662.9" clip-path="url(#S)"/></g><g><path fill="#fff" d="M4136.3,1712.4l-43,14l1.7,89.1c0,0,37.4,22.1,41.5,8.6c4.1-13.6-7.3-84.5,1.2-90.7
			C4146.4,1727.2,4143.5,1710.1,4136.3,1712.4"/><path fill="#ffc261" d="M4296.2,1419.7c0,0,0.9-20.1,20.5-22.7c19.6-2.6,58-13,57.2-21.9c-0.8-8.9,4.6-26.1-10.6-31.6
			c-15.2-5.5-14.4,8.5-14.4,13c0,4.5-15.2,22.2-38.6,24.5c-8.9,4.2-17.1,28.3-17.1,38.7C4293.6,1424.5,4296.2,1419.7,4296.2,1419.7"/><path fill="#822b00" d="M4572.6 1803c-15 23.6-47.6 23.7-70.6 34.7-3 1.5-.4 5.9 2.6 4.5 24.3-11.6 56.6-11.5 72.5-36.5C4578.9 1802.8 4574.4 1800.2 4572.6 1803M4385.5 1396.2c7.7 2.1 15.9 4.4 21.7 10.1 5.8 5.7 8.4 13.7 10.8 21.2 1 3.2 6.1 1.8 5-1.4-2.7-8.4-5.7-17.2-12.2-23.5-6.5-6.4-15.5-9.1-24-11.4C4383.6 1390.2 4382.3 1395.3 4385.5 1396.2M4364.7 1342.2c1.8-.1 3.5-.1 5.3.1.5.1-.2 0 .1 0 .2 0 .3.1.5.1.4.1.7.1 1.1.3.1 0 .3.1.5.2-.6-.4 0 0 .1.1.1.1.4.4.2.1-.4-.4.4.4.1.1-.2-.3.1.2.2.3 0 .1.3.7.1.2.1.4.3.7.4 1.1.3.8.5 1.7.8 2.5.2.8.4 1.7.6 2.6.1.4.2.8.2 1.2 0 .2.1.5.1.7 0 .1.1.8 0 .3.2 1.3 1.1 2.7 2.6 2.6 1.3-.1 2.8-1.2 2.6-2.6-.3-2.1-.7-4.2-1.2-6.3-.6-2-1.2-4.3-2.6-5.9-1.3-1.5-3.2-2.1-5.1-2.3-2.2-.3-4.3-.4-6.5-.3-1.4.1-2.7 1.1-2.6 2.6C4362.1 1340.9 4363.2 1342.3 4364.7 1342.2"/><path fill="#14283a" d="M4425.5,1883c4.6,32.4,26.4,61.6,56,75.4c6,2.8,11.3-6.2,5.3-9c-27.5-12.8-47-39.1-51.2-69.1
			c-0.4-2.8-3.9-4.3-6.4-3.6C4426.1,1877.4,4425.1,1880.2,4425.5,1883"/><path fill="#ffa829" d="M4363.9,1438.3c-0.2,7.6,0.6,15.2,1.1,22.8c0.8,13,1.3,25.9,1.1,38.9c-0.5,46.7-7.8,93.1-18.1,138.5
			c-9.2,40.4-20.9,80.1-34.1,119.3c-0.9,2.5,3.2,3.6,4,1.1c21-62.3,38.6-126.2,47.2-191.4c4.5-33.9,6.3-68,4.2-102.1
			c-0.5-9-1.7-18.1-1.4-27.1C4368.1,1435.6,4364,1435.6,4363.9,1438.3"/><g opacity=".9"><defs><rect id="U" width="367.6" height="97.6" x="2500.5" y="3199.3"/></defs><clipPath id="V"><use overflow="visible" xlink:href="#U"/></clipPath><path fill="#3d5f93" d="M2868,3248.2c5.6,44.9-224.6,66.1-325.8,31.1c-98.9-30-9.8-81.4,141.9-80
					C2784.5,3199.2,2868.3,3221.3,2868,3248.2" clip-path="url(#V)"/></g><path fill="#34a753" d="M2745,3172.8c3.7,111.6-149.4,164.2-216.7,77.3c-65.8-74.4-6.5-202.1,94.4-198.7
			C2689.4,3051.1,2745.2,3106.1,2745,3172.8"/><path fill="#f2f2f2" d="M2615.2,3094.7c-38.4,0-69.4,31.1-69.4,69.5c0,38.4,31.1,69.5,69.4,69.5c12.8,0,24.8-3.5,35.2-9.6
			c10.3-6,18.8-14.6,24.8-24.8c6.1-10.3,9.5-22.3,9.5-35.1C2684.7,3125.8,2653.6,3094.7,2615.2,3094.7 M2615.2,3192.6
			c-15.7,0-28.4-12.7-28.4-28.4c0-15.7,12.7-28.4,28.4-28.4c15.7,0,28.4,12.7,28.4,28.4C2643.6,3179.9,2630.9,3192.6,2615.2,3192.6"/><path fill="#f2f2f2" d="M2693.3,3245.4c-10.4,8.6-19.9,2.7-19.9,2.7s-14.3-15-23-24c10.3-6,18.8-14.6,24.8-24.8l23.5,24.9
			C2698.7,3224.2,2703.6,3236.8,2693.3,3245.4"/><g opacity=".9"><defs><rect id="W" width="737.6" height="57.2" x="3155.5" y="3337.2"/></defs><clipPath id="X"><use overflow="visible" xlink:href="#W"/></clipPath><path fill="#3d5f93" d="M3893.2,3365.8c0,15.8-165.1,28.6-368.8,28.6c-203.7,0-368.8-12.8-368.8-28.6
					c0-15.8,165.1-28.6,368.8-28.6C3728,3337.2,3893.2,3350,3893.2,3365.8" clip-path="url(#X)"/></g><path fill="#fabb05" d="M3832.1,3262c-86.5,79.5-201.9,128-328.6,128c-132.8,0-253.1-53.2-340.8-139.6
			c21.5,18.8,49.8,30.3,80.8,30.3c67.6,0,122.3-54.4,122.3-121.5c0-28.7-10.1-55.2-26.9-76c43.3,39.9,101.1,64.2,164.6,64.2
			c61.5,0,117.5-22.8,160.3-60.3c-13.3,16-22.4,35.4-26,56.7c-0.2,1.4-0.5,2.9-0.7,4.3c-0.5,3.5-0.8,7.1-0.9,10.7
			c-0.1,1.8-0.1,3.6-0.1,5.5c0,1.9,0,3.8,0.2,5.8c3,64.4,56.8,115.8,122.7,115.8C3786.4,3285.9,3811.7,3277,3832.1,3262"/><path fill="#b3dfff" d="M3563.2,3205.5c0-11-8.9-19.9-19.9-19.9h-82.1v0.3c-9.8,1.2-17.4,9.5-17.4,19.6c0,10.1,7.6,18.4,17.4,19.6
			v0.3h82.1C3554.3,3225.4,3563.2,3216.5,3563.2,3205.5"/><path fill="#0092f6" d="M3541.5,3185.7c-11,0-19.9,8.9-19.9,19.9s8.9,19.9,19.9,19.9c11,0,19.9-8.9,19.9-19.9
			S3552.5,3185.7,3541.5,3185.7"/><path fill="#b3dfff" d="M3501.1,3266c0-11-8.9-19.9-19.9-19.9h-82.1v0.3c-9.8,1.2-17.4,9.5-17.4,19.6c0,10.1,7.6,18.4,17.4,19.6v0.3
			h82.1C3492.2,3285.9,3501.1,3277,3501.1,3266"/><path fill="#0092f6" d="M3479.5,3246.2c-11,0-19.9,8.9-19.9,19.9s8.9,19.9,19.9,19.9c11,0,19.9-8.9,19.9-19.9
			S3490.4,3246.2,3479.5,3246.2"/><path fill="#b3dfff" d="M3566.8,3324.4c0-11-8.9-19.9-19.9-19.9h-82.1v0.2c-9.8,1.2-17.4,9.5-17.4,19.6c0,10.1,7.6,18.4,17.4,19.6
			v0.3h82.1C3557.9,3344.3,3566.8,3335.4,3566.8,3324.4"/><path fill="#0092f6" d="M3545.1,3304.6c-11,0-19.9,8.9-19.9,19.9s8.9,19.9,19.9,19.9c11,0,19.9-8.9,19.9-19.9
			S3556.1,3304.6,3545.1,3304.6"/><g opacity=".9"><defs><rect id="Y" width="1065.2" height="152.9" x="1239.8" y="3136.3"/></defs><clipPath id="Z"><use overflow="visible" xlink:href="#Y"/></clipPath><path fill="#4676b7" d="M2305,3198.9c-6.1,87.1-357.2,86.6-461.4,90.2c-104.2,3.6-607.7-48.6-603.7-106.6
					C1243.8,3124.6,2311.1,3111.7,2305,3198.9" clip-path="url(#Z)"/></g></g><g><defs><path id="aa" d="M1456.2,3089.9c5.2,4,43.1,23.5,43.1,23.5l47.4-72.5l-39.2-27.9L1456.2,3089.9z"/></defs><clipPath id="ab"><use overflow="visible" xlink:href="#aa"/></clipPath><linearGradient id="ac" x1="1759.715" x2="1763.885" y1="2774.679" y2="2774.679" gradientTransform="scale(24.3842 -24.3842) rotate(19.617 9299.577 -3592.716)" gradientUnits="userSpaceOnUse"><stop offset="0" stop-color="#ffc7d0"/><stop offset="1" stop-color="#e65e75"/></linearGradient><polygon fill="url(#ac)" points="1424.4 3024.4 1536.5 2984.5 1578.4 3102.2 1466.4 3142.1" clip-path="url(#ab)"/></g><g><defs><path id="ad" d="M1908,3100.8c0,0,19.5-5.3,31.5,4.9c1.6,1.4,27.5-63.4,27.5-63.4l-37.1-24.8L1908,3100.8z"/></defs><clipPath id="ae"><use overflow="visible" xlink:href="#ad"/></clipPath><linearGradient id="af" x1="1747.327" x2="1751.497" y1="2674.346" y2="2674.346" gradientTransform="scale(10.489 -10.489) rotate(-22.056 -6643.32 5206.115)" gradientUnits="userSpaceOnUse"><stop offset="0" stop-color="#ffc7d0"/><stop offset="1" stop-color="#e65e75"/></linearGradient><polygon fill="url(#af)" points="1916.4 2996.9 1998.2 3030.1 1958.7 3127.6 1876.9 3094.4" clip-path="url(#ae)"/></g><g><path fill="#1e364c" d="M1913,2249.2c-78.2,14.5-172.3,51.9-168.4,76.7c1,6.4,94.8,128.3,142.5,305.2
			C1930.9,2508.2,1975.8,2361.1,1913,2249.2"/><path fill="#304c6a" d="M2053.3,2633.3c-1.6-181.3-89.6-373.5-93.8-389.9c-14.1,0.7-29.9,2.7-46.5,5.8
			c62.8,111.9,17.8,259-25.9,381.9c4.3,16.1,8.3,32.6,11.8,49.6c25.5,124.6-36.2,313,13.4,383.3l57.9-1.5
			C1970.2,3062.5,2055.2,2851,2053.3,2633.3"/><path fill="#1e364c" d="M1706.6,2381.4c12.5-58.4,0-112.6,12.5-171c0-3,0-6.3,0.1-9.7c-43.2,19.9-74.6,50.5-69.6,97.3
			c0,0,22.3,302.1-46.8,467.3c-69.1,165.2-122.1,263.2-122.1,263.2s15.4,11.1,29.4,20.3c85.8-111.2,135.7-252.7,188.1-383.8
			C1731.6,2577.4,1681.6,2477.3,1706.6,2381.4"/><path fill="#304c6a" d="M1925.5,2163.2c0,0-124.4-0.3-206.2,37.5c-0.1,3.4-0.1,6.7-0.1,9.7c-12.5,58.4,0,112.6-12.5,171
			c-25,95.9,25,196-8.3,283.6c-52.5,131.1-102.4,272.6-188.1,383.8c10.9,7.1,21,13.1,22.1,11.6c2.5-3.4,320.1-345.1,375.3-627.1
			C1962.6,2151.2,1925.5,2163.2,1925.5,2163.2"/></g><g><defs><path id="ag" d="M2312.2,1727.6c-6.5,17-275.4,324.2-389.8,76.1l-23.3-50.5c0,0-94.5,75.1-81.3,100.9
				c0,0,90.8,162.1,214.2,150.5c157.7-5.9,295.9-249.7,295.9-249.7s33.5,6,15.2-48.5c-5.6-16.6-10-22.7-13.6-22.7
				C2321,1683.7,2316.7,1715.8,2312.2,1727.6"/></defs><clipPath id="ah"><use overflow="visible" xlink:href="#ag"/></clipPath><linearGradient id="ai" x1="1833.118" x2="1837.288" y1="2768.226" y2="2768.226" gradientTransform="scale(-84.6349 84.6349) rotate(65.826 3026.427 -41.128)" gradientUnits="userSpaceOnUse"><stop offset="0" stop-color="#ffc7d0"/><stop offset="1" stop-color="#e65e75"/></linearGradient><polygon fill="url(#ai)" points="2498.8 1745.4 2267.9 2259.8 1667 1990.1 1897.9 1475.7" clip-path="url(#ah)"/></g><g><path fill="#88b0f4" d="M2323.2,1374.5c-16.6,13.3-30,31-38.1,52.3c-24,63.4,8,134.2,71.4,158.2c30.5,11.5,62.7,10.1,90.6-1.5
			c-1.4,0.7-2.8,1.4-4.2,2.1c-51.9,26.5-94.4,71.6-116.6,130.4c-47.5,125.7,15.8,266,141.5,313.6c58.1,22,119.4,20.3,173.2-0.5
			c-24,13.6-43.6,35.5-54.2,63.4c-23.9,63.2,7.6,133.6,70.4,157.4c27.4,10.4,56.3,10.1,82,1.3c-110.1,45.4-237,50.8-357.2,5.3
			c-251-94.9-377.5-375.3-282.6-626.3C2142.4,1516.3,2223.7,1428,2323.2,1374.5"/><path fill="#88b0f4" d="M2443.3,1355.5c63.4,24,95.3,94.8,71.3,158.2c-11.2,29.7-32.8,52.5-59,65.9c-0.2,0.1-0.4,0.2-0.6,0.3
			c-2.4,1.2-4.9,2.4-7.3,3.4c-0.2,0.1-0.4,0.2-0.6,0.3c-27.9,11.6-60,13-90.6,1.5c-63.4-24-95.4-94.8-71.4-158.2
			c8.1-21.3,21.4-39.1,38.1-52.3c17.2-9.3,35-17.6,53.2-24.7C2398,1345.5,2421.1,1347.1,2443.3,1355.5"/><path fill="#3a83f6" d="M2391.2,1540.6h-39.1c-0.3,14.4-7.5,27.1-18.5,34.9l27.8,27.8C2379.4,1588.3,2390.9,1565.8,2391.2,1540.6"/><path fill="#34a753" d="M2333.6,1575.5c-7.1,5-15.8,8-25.2,8c-9.8,0-18.8-3.3-26.1-8.7l-27.7,27.7c14.5,12.4,33.3,20,53.9,20
			c20.2,0,38.7-7.2,53-19.2L2333.6,1575.5z"/><path fill="#ffbc05" d="M2264.7,1539.9c0-8.5,2.5-16.4,6.7-23.2l-28-28c-11.1,14.1-17.8,31.8-17.8,51.1c0,25.1,11.2,47.5,28.9,62.7
			l27.7-27.7C2271.6,1566.8,2264.7,1554.2,2264.7,1539.9"/><path fill="#f2362d" d="M2308.4,1496.2c13,0,24.5,5.7,32.5,14.6c10.2-8,20.9-15.6,31.8-23c-15.2-18.7-38.3-30.6-64.3-30.6
			c-26.4,0-49.8,12.4-65,31.6l28,28C2279.1,1504.4,2292.8,1496.2,2308.4,1496.2"/><polygon fill="#3a83f6" points="2383.6 1571.4 2318.9 1571.4 2318.9 1540.6 2391.2 1540.6"/><path fill="#ef852f" d="M2145.4 1900.6c-11 0-19.9 8.9-19.9 19.9 0 11 8.9 19.9 19.9 19.9 11 0 19.9-8.9 19.9-19.9C2165.3 1909.5 2156.4 1900.6 2145.4 1900.6M2201.6 1837.4c-10.6 0-19.1 8.3-19.7 18.7h-.1v64.3c0 11 8.9 19.9 19.9 19.9 11 0 19.9-8.9 19.9-19.9v-64.3h-.1C2220.7 1845.7 2212.1 1837.4 2201.6 1837.4"/><path fill="#fdb93c" d="M2257.3,1771.1c-11,0-19.9,8.9-19.9,19.9v132h0.2c1.2,9.8,9.5,17.4,19.6,17.4c10.1,0,18.4-7.6,19.6-17.4h0.2
			v-132C2277.1,1780,2268.2,1771.1,2257.3,1771.1"/><path fill="#3a94f4" d="M2464.7,2232.5l-4.8,4.9c-0.6,0.6-1.4,0.9-2,1.3c0,0.1-0.1,0.1-0.2,0.1c-2.4,1-7.8,2.8-13.9,3
			c-0.1,0.1-0.2,0.1-0.4,0c-6.2-0.3-11.6-2-13.9-3c0,0-0.1,0-0.2-0.1c-0.6-0.4-1.3-0.7-1.9-1.3c-0.2-0.1-0.4-0.2-0.5-0.4l-4.4-4.5
			l-80-81.6c-25.3-25.9,10.9-52.9,10.9-52.9l61.1-57.3c0,0,13.4-13.4,29.1-11.7c-5.3,0.6-10.8,2.8-16.2,7.9
			c-21.2,20.2-2.7,37.6-2.7,37.6l18.9,18.4l-41.7,40.5l41.7,46.4l23.8,26.6C2467.5,2206.6,2476.5,2217.1,2464.7,2232.5"/><path fill="#9bc6fd" d="M2544.7,2151l-80,81.6c11.7-15.4,2.8-26,2.8-26l-23.8-26.6l41.6-46.4l-41.6-40.5l-18.9-18.3
			c0,0-18.5-17.4,2.7-37.6c5.4-5.1,10.9-7.3,16.2-7.9c15.7-1.7,29,11.7,29,11.7l61.1,57.3C2533.8,2098.1,2570,2125.1,2544.7,2151"/><path fill="#158cea" d="M2464.3,2214.1c0,13-10.5,23.5-23.5,23.5c-13,0-23.5-10.5-23.5-23.5c0-13,10.5-23.5,23.5-23.5
			C2453.8,2190.6,2464.3,2201.1,2464.3,2214.1"/><path fill="#f25600" d="M1805.5,1725.8c-41.5,14.4-154,71-145,259.7c11,231-14.5,282.1-6.1,287.7c3,2,43,10.2,93.8,15.9
			C1708.9,2099.8,1617.2,1871.7,1805.5,1725.8"/><path fill="#ff7116" d="M1899.4,1735.7c-53.6-18.9-78.8-14.2-78.8-14.2s-5.7,1.1-15,4.3c-188.3,145.9-96.7,373.9-57.3,563.3
			c92.7,10.4,221.3,12.5,227.2-46.6C1971.1,2111.7,1965.6,1868.1,1899.4,1735.7"/></g><g><defs><path id="aj" d="M1731.5,1849.2c0,0-62.5,185.9,100.5,254.6c163,68.8,313.5,14.8,313.5,14.8s81.8,3,84.7-25.4
				c-14.7,1-25.7,0.9-34,0.9c-10.7-0.1-16.6-0.2-19.3,2.1c8.3-12.4-14.8-19.5-29.6-8.9c-14.8,10.6-334.9,50.4-294.1-219.8
				c8.3-55,1.6-57.9,1.6-57.9S1734.6,1820.3,1731.5,1849.2"/></defs><clipPath id="ak"><use overflow="visible" xlink:href="#aj"/></clipPath><linearGradient id="al" x1="1843.529" x2="1847.699" y1="2771.028" y2="2771.028" gradientTransform="scale(-73.4463 73.4463) rotate(32.471 5620.286 -1813.3)" gradientUnits="userSpaceOnUse"><stop offset="0" stop-color="#ffc7d0"/><stop offset="1" stop-color="#e65e75"/></linearGradient><polygon fill="url(#al)" points="2394.6 2068 1830.7 2426.8 1504.5 1914.2 2068.4 1555.4" clip-path="url(#ak)"/></g><g><path fill="#f4970f" d="M1781.7,1759.8c-39,3.5-74.1,61.6-72.5,165.7l22.5-1.3C1732.1,1864.3,1737.3,1798.7,1781.7,1759.8"/><path fill="#ffc261" d="M1829.4,1767.4c-8.6-5.4-19.4-7.7-44-7.7c-1.3,0-2.5,0.1-3.7,0.2c-44.4,38.9-49.6,104.5-50,164.4l118.9-6.8
			C1855.6,1865.2,1855.4,1813.1,1829.4,1767.4"/><path fill="#fcddb1" d="M1846.2,1782c-6.7-6.4-11.3-11.2-16.9-14.7c26,45.7,26.2,97.8,21.2,150.1l16.4-0.9
			C1867,1916.5,1863.4,1798.3,1846.2,1782"/></g><g><defs><path id="am" d="M1846.7,1667.1l-29,66.8c15.4,32.5,79.2,26.6,79.2,26.6s-1.2-28.9-17.8-89.8c-1.2-5.9-6.6-7.6-12.6-7.6
				C1857.4,1663,1846.7,1667.1,1846.7,1667.1"/></defs><clipPath id="an"><use overflow="visible" xlink:href="#am"/></clipPath><linearGradient id="ao" x1="1834.791" x2="1838.961" y1="2814.137" y2="2814.137" gradientTransform="scale(39.128 -39.128) rotate(86.114 2471.717 427.396)" gradientUnits="userSpaceOnUse"><stop offset="0" stop-color="#ffc7d0"/><stop offset="1" stop-color="#e65e75"/></linearGradient><polygon fill="url(#ao)" points="1810.7 1765.9 1818.1 1657.7 1903.9 1663.5 1896.6 1771.8" clip-path="url(#an)"/></g><g><defs><path id="ap" d="M1825.7,1626.5c-0.8,18.9-1.2,41.8,39.4,46.5c89.5,11,39.8-102.1,39.8-102.1
				c-13.5-10-24.8-14.1-34.3-14.1C1835.9,1556.8,1826.3,1611.6,1825.7,1626.5"/></defs><clipPath id="aq"><use overflow="visible" xlink:href="#ap"/></clipPath><linearGradient id="ar" x1="1846.1" x2="1850.27" y1="2783.554" y2="2783.554" gradientTransform="scale(-78.5702 78.5702) rotate(-25.769 -5127.289 5493.825)" gradientUnits="userSpaceOnUse"><stop offset="0" stop-color="#ffc7d0"/><stop offset="1" stop-color="#e65e75"/></linearGradient><polygon fill="url(#ar)" points="1930 1734.9 1774.7 1660 1849.1 1505.9 2004.4 1580.8" clip-path="url(#aq)"/></g><g><path fill="#1b2c49" d="M1942.6 1571.5c-5.3 8.3-34.3 6.6-51.5-.4-2.2 13.2-22.7 24.2-33.8 14.9 1.2 7.1 2.2 16.2 1.9 25.2-2.9-2.3-6-3.3-8-.3-4.5 6.5-6.4 23.3 3.4 24.2-2.7 6-6.8 10.7-12.7 12.9 0 0-33.4 30.3-62-4.8-28.5-35.2 23.3-54.1 31-51-26.2-13.6.2-62.9 31-44 10.6-17.6 51.5-18 49.2 5.3C1922 1546.4 1947.9 1555.2 1942.6 1571.5M2093.5 3182.5c8.4-22.8-9.1-43.9-31.9-57.1-30.5-17.7-96.6.4-96.6.4-19-7.3-12.8-36-12.8-36l-45.9-4.7c0 0-24.9 63.4-20 97.9C1951.9 3210.5 2032.9 3216.3 2093.5 3182.5"/><path fill="#aecff1" d="M1886.4,3183c1.5,10.7,5.8,18.5,14.6,21c37.2,10.2,137.2,33.1,174.6,1.9c9.4-7.8,15.1-15.7,17.9-23.3
			C2032.9,3216.3,1951.9,3210.5,1886.4,3183"/><path fill="#e65e75" d="M2001.8,3102.5c0,0-20.7,45-11.8,35.1c8.9-9.9,24.6-36.9,34.3-35.2c9.6,1.7-3.7,33.8,7,33.8
			c10.7,0,8.7-36.6,17.9-34.6c9.2,2,4.3,33.1,10.3,34c-6.3,0-8.8-20.2-8.9-27.4c-0.1-7.2-5.2-2.8-5.5,1.9
			c-0.3,4.8-2.4,31.7-14.3,28.7c-11.9-3-7.1-25.2-7-27.2c0.1-2.1-2.8-6.8-6.4-2.8c-3.7,4-24.9,36.7-31,34.4
			C1980.1,3140.8,1993.4,3109.8,2001.8,3102.5"/><path fill="#1b2c49" d="M1577.5,3258.6c19.7-14.3,17-41.5,5.5-65.2c-15.4-31.7-80.3-53.7-80.3-53.7c-11.6-16.6,9.5-37,9.5-37
			l-46.3-30.7c0,0-45.1,39.8-60.4,71.1C1444.4,3202.7,1508.3,3252.7,1577.5,3258.6"/><path fill="#aecff1" d="M1405.4,3143.3c-4.7,9.7-5.5,18.6,0.4,25.5c25.1,29.3,95.3,104.1,143.7,99.2c12.2-1.2,21.3-4.5,27.9-9.3
			C1508.3,3252.7,1444.4,3202.7,1405.4,3143.3"/><path fill="#e65e75" d="M1546.2,3141c0,0-42.3,25.7-29.4,22.5c12.9-3.2,41-16.8,48.1-10c7.1,6.8-22,25.9-13.1,31.9
			c8.9,6,27.6-25.5,34.2-18.7c6.5,6.8-14.9,29.9-10.4,33.9c-5.2-3.5,4-21.7,7.9-27.7c4-6-2.7-5.3-5.7-1.5
			c-2.9,3.8-19.7,24.9-27.9,15.8c-8.2-9.2,8.2-24.8,9.4-26.5c1.2-1.6,1.5-7.2-3.8-5.9c-5.3,1.3-41.1,16.5-44.9,11.1
			C1506.8,3160.6,1535.1,3142.4,1546.2,3141"/></g><g><defs><path id="as" d="M2361.4,1656.9c-10.4,3.2-11.8,23.6-15.4,26.7c-1.8,1.6-4.3-2.7-9.2-6.9c-4.9-4.2-12.1-8.4-23.3-6.9
				c-22.5,2.9-27.9,41.5-14.7,70.9c13.2,29.3,39.4,10,39.4,10c22.9-0.7,15-49,14-55.1c-1-5.8,17.9-38.9,10.5-38.9
				C2362.2,1656.7,2361.9,1656.8,2361.4,1656.9"/></defs><clipPath id="at"><use overflow="visible" xlink:href="#as"/></clipPath><linearGradient id="au" x1="1852.355" x2="1856.525" y1="2776.96" y2="2776.96" gradientTransform="scale(-41.9884 41.9884) rotate(-8.461 -17594.934 14316.712)" gradientUnits="userSpaceOnUse"><stop offset="0" stop-color="#ffc7d0"/><stop offset="1" stop-color="#e65e75"/></linearGradient><polygon fill="url(#au)" points="2368.2 1782.3 2269.1 1767.6 2287.4 1644.4 2386.5 1659.2" clip-path="url(#at)"/></g><g><path fill="#fcddb1" d="M1909.5,1848.1c0,0-0.5-64.2-15.6-73.6c-15.1-9.4-77.3-10.9-82.3-38.1c-5-27.3,5.6-28.8,9.7-24.5
			c4.1,4.4,77.5,19.6,82.4,56.7c4.8,37.1,8.8,79.5,8.8,79.5S1913.2,1854.8,1909.5,1848.1"/><path fill="#fcddb1" d="M1896.2,1751.9c0,0-4.4-27.7-4.7-29.2c7.6-0.5,10.1,10.3,11.5,14.6c1.5,4.3,1,9.5-1,8
			c-2-1.5-3.2,10.3-3.2,10.3L1896.2,1751.9z"/><path fill="#822b00" d="M1705 2150.2c3.8 34.5 11 68.5 21.7 101.6 1 3.2 6.1 1.8 5-1.4-10.5-32.6-17.7-66.2-21.5-100.2C1709.8 2146.9 1704.6 2146.9 1705 2150.2M1716.5 1916.3c21.6-.1 43.2-1.7 64.6-4.9 3.3-.5 1.9-5.5-1.4-5-20.9 3-42 4.6-63.2 4.7C1713.1 1911.1 1713.1 1916.3 1716.5 1916.3M1793.8 1911h5.6c.7 0 1.4-.3 1.8-.8.5-.5.8-1.2.8-1.8 0-.7-.3-1.4-.8-1.8-.5-.5-1.1-.8-1.8-.8h-5.6c-.7 0-1.4.3-1.8.8-.5.5-.8 1.2-.8 1.8 0 .7.3 1.4.8 1.8C1792.4 1910.7 1793.1 1911 1793.8 1911M1816.1 1910.2h11.1c1.4 0 2.7-1.2 2.6-2.6-.1-1.4-1.1-2.6-2.6-2.6h-11.1c-1.4 0-2.7 1.2-2.6 2.6C1813.5 1909 1814.6 1910.2 1816.1 1910.2M1847.3 1909.8h6.3c.7 0 1.4-.3 1.8-.8.5-.5.8-1.2.8-1.8-.1-1.4-1.1-2.6-2.6-2.6h-6.3c-.7 0-1.4.3-1.8.8-.5.5-.8 1.2-.8 1.8C1844.7 1908.6 1845.8 1909.8 1847.3 1909.8M1662.9 2257.1c-4.9 6.4 2 12.3 7.9 13.9 10.9 2.9 22.2 4.7 33.3 6.7 22.1 4 44.3 7.1 66.7 9.4 22.8 2.4 45.6 3.8 68.5 4.3 19.7.5 39.4.6 59-2 20.8-2.8 41.2-8.9 58.3-21.4 2.7-2 .1-6.5-2.6-4.5-28.4 20.7-64.6 23.1-98.5 22.9-40.8-.2-81.7-3.3-122-9.3-11.3-1.7-22.6-3.6-33.8-5.7-5.3-1-10.6-2-15.9-3.1-2.9-.6-20.8-2.9-16.3-8.7C1669.4 2257.1 1664.9 2254.5 1662.9 2257.1"/></g><g><defs><path id="av" d="M3873,1561.3c0,0,0.5,6.4,4.5,31.7c4,25.3,35.7,20.8,42.6,14.8c6.9-6-4-57.4-25.8-70.3
				c-3.3-1.9-6-2.7-8.4-2.7C3872.7,1534.7,3873,1561.3,3873,1561.3"/></defs><clipPath id="aw"><use overflow="visible" xlink:href="#av"/></clipPath><linearGradient id="ax" x1="1795.395" x2="1799.565" y1="2778.137" y2="2778.137" gradientTransform="scale(-14.5013 14.5013) rotate(51.609 3524.571 -693.215)" gradientUnits="userSpaceOnUse"><stop offset="0" stop-color="#ffc7d0"/><stop offset="1" stop-color="#e65e75"/></linearGradient><polygon fill="url(#ax)" points="3967.7 1566.9 3906.1 1644.7 3832 1586 3893.6 1508.3" clip-path="url(#aw)"/></g><g><path fill="#14283a" d="M1817.3,2324.9c-3.4,19.1-8.3,40.3-23,53.9c-15,13.8-35.5,19.2-54.7,24.3c-6.5,1.7-3.7,11.8,2.8,10.1
			c21.1-5.7,42.9-11.9,59.3-27c16.2-14.9,22.1-37.6,25.7-58.5C1828.5,2321.1,1818.5,2318.3,1817.3,2324.9"/></g></svg>